<svg xmlns="http://www.w3.org/2000/svg" viewBox="0 0 800 450" width="800" height="450">
  <defs>
    <pattern id="crosshatch" width="6" height="6" patternUnits="userSpaceOnUse" patternTransform="rotate(45)">
      <line x1="0" y1="0" x2="0" y2="6" stroke="#8a7d65" stroke-width="0.8" opacity="0.4"/>
    </pattern>
    <pattern id="stipple" width="4" height="4" patternUnits="userSpaceOnUse">
      <circle cx="2" cy="2" r="0.5" fill="#8a7d65" opacity="0.15"/>
    </pattern>
    <pattern id="hatch" width="4" height="4" patternUnits="userSpaceOnUse" patternTransform="rotate(60)">
      <line x1="0" y1="0" x2="0" y2="4" stroke="#8a7d65" stroke-width="0.6" opacity="0.35"/>
    </pattern>
    <pattern id="engrave" width="3" height="3" patternUnits="userSpaceOnUse" patternTransform="rotate(30)">
      <line x1="0" y1="0" x2="0" y2="3" stroke="#8a7d65" stroke-width="0.4" opacity="0.3"/>
    </pattern>
    
  </defs>
  <rect width="800" height="450" fill="#0f1419"/>
  <rect width="800" height="450" fill="url(#stipple)"/>

  <!-- Box -->
  <rect x="265" y="175" width="270" height="220" fill="url(#crosshatch)" stroke="#d4c5a9" stroke-width="3"/>
  <!-- Lid -->
  <path d="M 248 175 L 552 175 L 568 148 L 232 148 Z" fill="url(#engrave)" stroke="#d4c5a9" stroke-width="2.5"/>
  <!-- Slot -->
  <rect x="345" y="155" width="110" height="10" fill="#0f1419" stroke="#d4c5a9" stroke-width="2"/>
  <!-- Ballot -->
  <rect x="362" y="85" width="76" height="78" fill="none" stroke="#d4c5a9" stroke-width="2.5" transform="rotate(-6,400,124)"/>
  <polyline points="378,118 394,136 424,104" fill="none" stroke="#d4c5a9" stroke-width="3" transform="rotate(-6,400,124)"/>
  <!-- Stars -->
  <circle cx="310" cy="265" r="8" fill="none" stroke="#c8b88a" stroke-width="1.5"/>
  <circle cx="400" cy="265" r="8" fill="none" stroke="#c8b88a" stroke-width="1.5"/>
  <circle cx="490" cy="265" r="8" fill="none" stroke="#c8b88a" stroke-width="1.5"/>
  <!-- Stripes -->
  <line x1="285" y1="310" x2="515" y2="310" stroke="#c8b88a" stroke-width="1.5"/>
  <line x1="285" y1="330" x2="515" y2="330" stroke="#c8b88a" stroke-width="1.5"/>
  <line x1="285" y1="350" x2="515" y2="350" stroke="#c8b88a" stroke-width="1.5"/>
  <line x1="285" y1="370" x2="515" y2="370" stroke="#c8b88a" stroke-width="1.5"/>
  <!-- Corner elements -->
  <path d="M 40 40 L 80 40 M 40 40 L 40 80" stroke="#8a7d65" stroke-width="1.5" opacity="0.5"/>
  <path d="M 760 40 L 720 40 M 760 40 L 760 80" stroke="#8a7d65" stroke-width="1.5" opacity="0.5"/>
  <path d="M 40 410 L 80 410 M 40 410 L 40 370" stroke="#8a7d65" stroke-width="1.5" opacity="0.5"/>
  <path d="M 760 410 L 720 410 M 760 410 L 760 370" stroke="#8a7d65" stroke-width="1.5" opacity="0.5"/>
</svg>