<svg xmlns="http://www.w3.org/2000/svg" viewBox="0 0 800 450" width="800" height="450">
  <defs>
    <pattern id="crosshatch" width="6" height="6" patternUnits="userSpaceOnUse" patternTransform="rotate(45)">
      <line x1="0" y1="0" x2="0" y2="6" stroke="#8a7d65" stroke-width="0.8" opacity="0.4"/>
    </pattern>
    <pattern id="stipple" width="4" height="4" patternUnits="userSpaceOnUse">
      <circle cx="2" cy="2" r="0.5" fill="#8a7d65" opacity="0.15"/>
    </pattern>
    <pattern id="hatch" width="4" height="4" patternUnits="userSpaceOnUse" patternTransform="rotate(60)">
      <line x1="0" y1="0" x2="0" y2="4" stroke="#8a7d65" stroke-width="0.6" opacity="0.35"/>
    </pattern>
    <pattern id="engrave" width="3" height="3" patternUnits="userSpaceOnUse" patternTransform="rotate(30)">
      <line x1="0" y1="0" x2="0" y2="3" stroke="#8a7d65" stroke-width="0.4" opacity="0.3"/>
    </pattern>
    
  </defs>
  <rect width="800" height="450" fill="#0f1419"/>
  <rect width="800" height="450" fill="url(#stipple)"/>

  <!-- Saucer -->
  <ellipse cx="380" cy="378" rx="158" ry="38" fill="url(#hatch)" stroke="#d4c5a9" stroke-width="2"/>
  <!-- Cup -->
  <path d="M 285 195 L 298 348 Q 380 385 462 348 L 475 195 Z" fill="url(#crosshatch)" stroke="#d4c5a9" stroke-width="2.5"/>
  <!-- Rim -->
  <ellipse cx="380" cy="195" rx="97" ry="28" fill="#0f1419" stroke="#d4c5a9" stroke-width="2.5"/>
  <!-- Handle -->
  <path d="M 475 228 Q 555 240 555 290 Q 555 340 475 328" fill="none" stroke="#d4c5a9" stroke-width="3.5"/>
  <!-- Steam -->
  <path d="M 345 162 Q 332 128 350 95 Q 362 68 345 40" fill="none" stroke="#c8b88a" stroke-width="2" opacity="0.5"/>
  <path d="M 380 158 Q 368 118 385 85 Q 398 58 380 30" fill="none" stroke="#c8b88a" stroke-width="2" opacity="0.5"/>
  <path d="M 415 162 Q 402 128 420 95 Q 432 68 415 40" fill="none" stroke="#c8b88a" stroke-width="2" opacity="0.5"/>
  <!-- Corner elements -->
  <path d="M 40 40 L 80 40 M 40 40 L 40 80" stroke="#8a7d65" stroke-width="1.5" opacity="0.5"/>
  <path d="M 760 40 L 720 40 M 760 40 L 760 80" stroke="#8a7d65" stroke-width="1.5" opacity="0.5"/>
  <path d="M 40 410 L 80 410 M 40 410 L 40 370" stroke="#8a7d65" stroke-width="1.5" opacity="0.5"/>
  <path d="M 760 410 L 720 410 M 760 410 L 760 370" stroke="#8a7d65" stroke-width="1.5" opacity="0.5"/>
</svg>