<svg xmlns="http://www.w3.org/2000/svg" viewBox="0 0 800 450" width="800" height="450">
  <defs>
    <pattern id="crosshatch" width="6" height="6" patternUnits="userSpaceOnUse" patternTransform="rotate(45)">
      <line x1="0" y1="0" x2="0" y2="6" stroke="#8a7d65" stroke-width="0.8" opacity="0.4"/>
    </pattern>
    <pattern id="stipple" width="4" height="4" patternUnits="userSpaceOnUse">
      <circle cx="2" cy="2" r="0.5" fill="#8a7d65" opacity="0.15"/>
    </pattern>
    <pattern id="hatch" width="4" height="4" patternUnits="userSpaceOnUse" patternTransform="rotate(60)">
      <line x1="0" y1="0" x2="0" y2="4" stroke="#8a7d65" stroke-width="0.6" opacity="0.35"/>
    </pattern>
    <pattern id="engrave" width="3" height="3" patternUnits="userSpaceOnUse" patternTransform="rotate(30)">
      <line x1="0" y1="0" x2="0" y2="3" stroke="#8a7d65" stroke-width="0.4" opacity="0.3"/>
    </pattern>
    
  </defs>
  <rect width="800" height="450" fill="#0f1419"/>
  <rect width="800" height="450" fill="url(#stipple)"/>

  <!-- Shield -->
  <path d="M 400 75 L 500 130 L 520 260 L 400 385 L 280 260 L 300 130 Z" fill="url(#crosshatch)" stroke="#d4c5a9" stroke-width="3"/>
  <!-- Inner shield -->
  <path d="M 400 110 L 475 150 L 490 252 L 400 350 L 310 252 L 325 150 Z" fill="none" stroke="#c8b88a" stroke-width="1.8"/>
  <!-- Star -->
  <polygon points="400,140 418,198 478,198 430,232 448,290 400,258 352,290 370,232 322,198 382,198" fill="url(#engrave)" stroke="#d4c5a9" stroke-width="2.5"/>
  <!-- Inner circle -->
  <circle cx="400" cy="220" r="30" fill="none" stroke="#d4c5a9" stroke-width="2"/>
  <circle cx="400" cy="220" r="20" fill="none" stroke="#c8b88a" stroke-width="1"/>
  <!-- Badge number area -->
  <line x1="370" y1="315" x2="430" y2="315" stroke="#c8b88a" stroke-width="2"/>
  <line x1="378" y1="330" x2="422" y2="330" stroke="#8a7d65" stroke-width="1.5"/>
  <!-- Corner elements -->
  <path d="M 40 40 L 80 40 M 40 40 L 40 80" stroke="#8a7d65" stroke-width="1.5" opacity="0.5"/>
  <path d="M 760 40 L 720 40 M 760 40 L 760 80" stroke="#8a7d65" stroke-width="1.5" opacity="0.5"/>
  <path d="M 40 410 L 80 410 M 40 410 L 40 370" stroke="#8a7d65" stroke-width="1.5" opacity="0.5"/>
  <path d="M 760 410 L 720 410 M 760 410 L 760 370" stroke="#8a7d65" stroke-width="1.5" opacity="0.5"/>
</svg>